# xmcd
#
# Track frame offsets: 
#        150
#        14467
#        29074
#        44740
#        58189
#        84363
#        113333
#        144769
#
# Disc length: 2117 seconds
#
# Revision: 0
# Processed by: cddbd v1.5.2PL0 Copyright (c) Steve Scherf et al.
# Submitted via: ExactAudioCopy v1.0b3
#
DISCID=64084308
DTITLE=Orion Too - You and Me
DYEAR=1900
DGENRE=
TTITLE0=You and Me (Mr. Vinx Radio Cut)
TTITLE1=You and Me (Original Radio Mix)
TTITLE2=You and Me (Koala Short Cut)
TTITLE3=You and Me (Tom-X Vs. Steve Cypress Short Mix)
TTITLE4=You and Me (Original Extended)
TTITLE5=You and Me (Koala Club Remix)
TTITLE6=You and Me (Tom-X Vs. Steve Cypress Club Mix)
TTITLE7=You and Me (DJ Garry Vs. FTW Remix)
EXTD=
EXTT0=
EXTT1=
EXTT2=
EXTT3=
EXTT4=
EXTT5=
EXTT6=
EXTT7=
PLAYORDER=
